<?xml version="1.0" encoding="UTF-8"?>
<svg fill="#8FE5FF" version="1.1" viewBox="0 0 496 496" xml:space="preserve" xmlns="http://www.w3.org/2000/svg">
	<path d="m424.87 348.34-88.424 7.792-49.44-68.04c4.552-4.432 8.32-9.632 11.16-15.376l26.632 8.648 12.184 58.6 15.672-3.256-10.32-49.648 12.616 4.096 4.592 30.496 15.832-2.384-3.4-22.584 18.128 5.888 4.936-15.216-18.12-5.888 16.016-16.264-11.392-11.224-21.64 21.96-12.616-4.096 37.528-34.096-10.768-11.84-44.296 40.248-26.616-8.648c0.528-3.104 0.864-6.264 0.864-9.512s-0.336-6.408-0.872-9.504l79.984-25.992 66.952 58.28 10.504-12.072-59.704-51.976 20.184-6.56 44.304 40.248 10.768-11.84-37.536-34.104 12.616-4.096 21.632 21.968 11.408-11.224-16.024-16.272 18.12-5.888-4.936-15.216-18.12 5.888 3.4-22.576-15.832-2.384-4.592 30.488-12.616 4.104 10.328-49.648-15.672-3.256-12.184 58.608-20.184 6.56 17.76-77.144-15.592-3.584-19.912 86.504-80 25.992c-2.84-5.752-6.608-10.952-11.16-15.376l16.456-22.648 59.496 6.52 1.752-15.904-50.416-5.52 7.8-10.736 30.416 5.048 2.624-15.784-22.528-3.744 11.2-15.416-12.936-9.408-11.2 15.416-10.52-20.272-14.2 7.376 14.208 27.368-7.8 10.728-20.832-46.232-14.592 6.568 24.6 54.568-16.44 22.624c-5.544-2.936-11.64-4.92-18.088-5.848v-84.104l76.12-45.672-8.232-13.72-67.912 40.736v-21.232l51.968-29.696-7.936-13.888-44.032 25.16v-13.272l27.576-13.792-7.16-14.312-20.416 10.216v-19.056h-16v19.056l-20.424-10.208-7.16 14.312 27.584 13.784v13.272l-44.032-25.16-7.936 13.888 51.968 29.696v21.232l-67.88-40.728-8.232 13.72 76.112 45.664v84.112c-6.44 0.928-12.544 2.912-18.088 5.848l-16.44-22.624 24.6-54.568-14.592-6.568-20.832 46.232-7.8-10.728 14.208-27.368-14.2-7.376-10.52 20.272-11.2-15.416-12.936 9.408 11.2 15.416-22.528 3.744 2.624 15.784 30.416-5.048 7.8 10.736-50.416 5.52 1.752 15.904 59.496-6.52 16.456 22.648c-4.552 4.432-8.32 9.632-11.16 15.376l-80-25.992-19.912-86.504-15.592 3.584 17.76 77.144-20.184-6.56-12.184-58.608-15.672 3.256 10.328 49.648-12.616-4.104-4.592-30.488-15.832 2.384 3.4 22.576-18.12-5.888-4.936 15.216 18.12 5.888-16.024 16.272 11.408 11.224 21.632-21.968 12.616 4.096-37.536 34.104 10.768 11.84 44.304-40.248 20.184 6.56-59.728 51.976 10.504 12.072 66.952-58.28 79.984 25.992c-0.536 3.088-0.872 6.248-0.872 9.496s0.336 6.408 0.872 9.504l-26.616 8.648-44.296-40.248-10.768 11.84 37.528 34.096-12.616 4.096-21.64-21.96-11.392 11.224 16.016 16.264-18.12 5.888 4.936 15.216 18.128-5.888-3.4 22.584 15.832 2.384 4.592-30.496 12.616-4.096-10.32 49.648 15.672 3.256 12.184-58.6 26.632-8.648c2.84 5.752 6.608 10.952 11.16 15.376l-49.44 68.04-88.432-7.792-1.408 15.936 78.864 6.952-12.48 17.176-59.496-6.52-1.752 15.904 50.416 5.52-7.8 10.736-30.424-5.048-2.624 15.784 22.528 3.744-11.2 15.416 12.936 9.408 11.208-15.424 10.52 20.272 14.2-7.376-14.208-27.368 7.8-10.728 20.832 46.24 14.592-6.568-24.6-54.576 12.48-17.176 30.984 72.856 14.72-6.256-34.736-81.696 49.424-68.024c5.544 2.936 11.64 4.92 18.088 5.848v28l-51.968 29.696 7.936 13.888 44.04-25.168v13.272l-27.576 13.792 7.16 14.312 20.416-10.216v19.056h16v-19.056l20.424 10.208 7.16-14.312-27.584-13.784v-13.272l44.032 25.16 7.936-13.888-51.968-29.696v-28c6.44-0.928 12.544-2.912 18.088-5.848l49.424 68.024-34.736 81.696 14.72 6.256 30.984-72.856 12.48 17.176-24.6 54.576 14.592 6.568 20.832-46.24 7.8 10.728-14.208 27.368 14.2 7.376 10.52-20.272 11.208 15.424 12.936-9.408-11.2-15.416 22.528-3.744-2.624-15.784-30.424 5.048-7.8-10.736 50.416-5.52-1.752-15.904-59.496 6.52-12.48-17.176 78.872-6.936-1.408-15.936zm-176.87-60.344c-22.056 0-40-17.944-40-40s17.944-40 40-40 40 17.944 40 40-17.944 40-40 40z"/>
	<rect x="240" y="480" width="16" height="16"/>
	<rect x="240" y="448" width="16" height="16"/>
	<rect x="256" y="464" width="16" height="16"/>
	<rect x="224" y="464" width="16" height="16"/>
	<rect x="24" y="328" width="16" height="16"/>
	<rect x="24" y="296" width="16" height="16"/>
	<rect x="40" y="312" width="16" height="16"/>
	<rect x="8" y="312" width="16" height="16"/>
	<rect x="456" y="328" width="16" height="16"/>
	<rect x="456" y="296" width="16" height="16"/>
	<rect x="472" y="312" width="16" height="16"/>
	<rect x="440" y="312" width="16" height="16"/>
	<rect x="112" y="72" width="16" height="16"/>
	<rect x="112" y="40" width="16" height="16"/>
	<rect x="128" y="56" width="16" height="16"/>
	<rect x="96" y="56" width="16" height="16"/>
	<rect x="368" y="72" width="16" height="16"/>
	<rect x="368" y="40" width="16" height="16"/>
	<rect x="384" y="56" width="16" height="16"/>
	<rect x="352" y="56" width="16" height="16"/>
</svg>
