<?xml version="1.0" encoding="UTF-8"?>
<svg viewBox="0 0 64 64" xmlns="http://www.w3.org/2000/svg">
<rect x="31.019" y="2" width="2" height="60" rx="1" ry="1" fill="#87ced9"/>
<rect transform="translate(-11.709 20.293) rotate(-29.995)" x="2.019" y="31" width="60" height="2" rx="1" ry="1" fill="#87ced9"/>
<rect transform="translate(-11.703 43.729) rotate(-60)" x="31.019" y="2" width="2" height="60" rx="1" ry="1" fill="#87ced9"/>
<path d="m34.619 59.2-2-1.5a1 1 0 0 0-1.2 0l-2 1.5a1 1 0 0 1-1.4-0.2 1 1 0 0 1 0.2-1.4l2.6-1.95a2 2 0 0 1 2.4 0l2.6 1.95a1 1 0 0 1 0.2 1.4 1 1 0 0 1-1.4 0.2z" fill="#a7e1eb"/>
<path d="M32.019,15a1,1,0,0,1-.5-.132l-6.132-3.5A1,1,0,0,1,25.019,10h0a1,1,0,0,1,1.364-.372l5.14,2.937a1,1,0,0,0,.992,0l5.14-2.937A1,1,0,0,1,39.019,10h0a1,1,0,0,1-.372,1.364l-6.132,3.5A1,1,0,0,1,32.019,15Z" fill="#a7e1eb"/>
<path d="M32.019,21a1,1,0,0,1-.555-.168L26.3,17.387A1,1,0,0,1,26.019,16h0a1,1,0,0,1,1.387-.277l4.058,2.706a1,1,0,0,0,1.11,0l4.058-2.706A1,1,0,0,1,38.019,16h0a1,1,0,0,1-.277,1.387l-5.168,3.445A1,1,0,0,1,32.019,21Z" fill="#a7e1eb"/>
<path d="M32.019,9a1,1,0,0,1-.6-.2l-3.2-2.4a1,1,0,0,1-.2-1.4h0a1,1,0,0,1,1.4-.2l2,1.5a1,1,0,0,0,1.2,0l2-1.5a1,1,0,0,1,1.4.2h0a1,1,0,0,1-.2,1.4l-3.2,2.4A1,1,0,0,1,32.019,9Z" fill="#a7e1eb"/>
<path d="m37.655 54.372-5.14-2.937a1 1 0 0 0-0.992 0l-5.14 2.937a1 1 0 0 1-1.364-0.372 1 1 0 0 1 0.372-1.364l5.636-3.221a2 2 0 0 1 1.984 0l5.636 3.221a1 1 0 0 1 0.372 1.364 1 1 0 0 1-1.364 0.372z" fill="#a7e1eb"/>
<path d="m36.632 48.277-4.058-2.706a1 1 0 0 0-1.11 0l-4.058 2.706a1 1 0 0 1-1.387-0.277 1 1 0 0 1 0.277-1.387l4.614-3.075a2 2 0 0 1 2.218 0l4.614 3.075a1 1 0 0 1 0.277 1.387 1 1 0 0 1-1.387 0.277z" fill="#a7e1eb"/>
<path d="m15.462 48.067-0.026-5.92a1 1 0 0 0-0.5-0.859l-5.109-2.982a1 1 0 0 1-0.36-1.368 1 1 0 0 1 1.367-0.36l5.607 3.27a2 2 0 0 1 0.992 1.719l0.029 6.491a1 1 0 0 1-1 1 1 1 0 0 1-1-0.991z" fill="#a7e1eb"/>
<path d="M21.163,45.2h0a1,1,0,0,1-.933-1.062l.314-4.868a1,1,0,0,0-.555-.96l-4.373-2.163a1,1,0,0,1-.453-1.339h0A1,1,0,0,1,16.5,34.35l4.971,2.458a2,2,0,0,1,1.109,1.921l-.357,5.534A1,1,0,0,1,21.163,45.2Z" fill="#a7e1eb"/>
<path d="M10.637,48.964h0a1,1,0,0,1-.873-1.112l.3-2.483a1,1,0,0,0-.6-1.039l-2.3-.982a1,1,0,0,1-.526-1.312h0a1,1,0,0,1,1.312-.527l2.989,1.277a2,2,0,0,1,1.2,2.078l-.389,3.227A1,1,0,0,1,10.637,48.964Z" fill="#a7e1eb"/>
<path d="M53.2,27.422,47.6,24.152a2,2,0,0,1-.992-1.719l-.029-6.491a1,1,0,0,1,1-1h0a1,1,0,0,1,1,.995l.027,5.92a1,1,0,0,0,.5.859l5.113,2.982a1,1,0,0,1,.36,1.368h0A1,1,0,0,1,53.2,27.422Z" fill="#a7e1eb"/>
<path d="M56.09,22.491,53.1,21.214a2,2,0,0,1-1.2-2.078l.389-3.227a1,1,0,0,1,1.112-.873h0a1,1,0,0,1,.873,1.112l-.3,2.483a1,1,0,0,0,.6,1.039l2.3.982a1,1,0,0,1,.527,1.312h0A1,1,0,0,1,56.09,22.491Z" fill="#a7e1eb"/>
<path d="M47.536,29.65l-4.97-2.458a2,2,0,0,1-1.11-1.922l.357-5.533a1,1,0,0,1,1.062-.933h0a1,1,0,0,1,.933,1.062L43.5,24.734a1,1,0,0,0,.555.96l4.373,2.163a1,1,0,0,1,.453,1.339h0A1,1,0,0,1,47.536,29.65Z" fill="#a7e1eb"/>
<path d="M47.572,49.062h0a1,1,0,0,1-1-1l.029-6.491a2,2,0,0,1,.993-1.719l5.606-3.27a1,1,0,0,1,1.368.36h0a1,1,0,0,1-.36,1.368L49.1,41.288a1,1,0,0,0-.5.859l-.027,5.92A1,1,0,0,1,47.572,49.062Z" fill="#a7e1eb"/>
<path d="M41.813,44.263l-.357-5.533a2,2,0,0,1,1.11-1.922l4.97-2.458a1,1,0,0,1,1.339.453h0a1,1,0,0,1-.453,1.339L44.05,38.306a1,1,0,0,0-.555.96l.314,4.868a1,1,0,0,1-.933,1.062h0A1,1,0,0,1,41.813,44.263Z" fill="#a7e1eb"/>
<path d="M52.29,48.091,51.9,44.864a2,2,0,0,1,1.2-2.078l2.989-1.277a1,1,0,0,1,1.312.527h0a1,1,0,0,1-.527,1.312l-2.3.982a1,1,0,0,0-.6,1.039l.3,2.483a1,1,0,0,1-.873,1.112h0A1,1,0,0,1,52.29,48.091Z" fill="#a7e1eb"/>
<path d="M9.467,27.062h0a1,1,0,0,1,.36-1.368l5.113-2.982a1,1,0,0,0,.5-.859l.026-5.92a1,1,0,0,1,1-.995h0a1,1,0,0,1,1,1l-.029,6.491a2,2,0,0,1-.992,1.719l-5.607,3.27A1,1,0,0,1,9.467,27.062Z" fill="#a7e1eb"/>
<path d="M6.637,21.964h0a1,1,0,0,1,.526-1.312l2.3-.982a1,1,0,0,0,.6-1.039l-.3-2.483a1,1,0,0,1,.873-1.112h0a1,1,0,0,1,1.112.873l.389,3.227a2,2,0,0,1-1.2,2.078L7.949,22.491A1,1,0,0,1,6.637,21.964Z" fill="#a7e1eb"/>
<path d="M15.163,29.2h0a1,1,0,0,1,.453-1.339l4.373-2.163a1,1,0,0,0,.555-.96l-.314-4.868a1,1,0,0,1,.933-1.062h0a1,1,0,0,1,1.062.933l.357,5.534a2,2,0,0,1-1.109,1.921L16.5,29.65A1,1,0,0,1,15.163,29.2Z" fill="#a7e1eb"/>
<path d="M26.019,43a1,1,0,0,1-.994-1.114l.726-6.315L20.56,32.888a1,1,0,0,1,0-1.776l5.191-2.683-.726-6.315a1,1,0,0,1,1.549-.946l5.445,3.63,5.445-3.63a1,1,0,0,1,1.549.946l-.725,6.315,5.19,2.683a1,1,0,0,1,0,1.776l-5.19,2.683.725,6.315a1,1,0,0,1-1.549.946L32.019,39.2l-5.445,3.63A1,1,0,0,1,26.019,43Zm6-6a1,1,0,0,1,.555.168l4.206,2.8-.558-4.858a1,1,0,0,1,.534-1L40.841,32l-4.085-2.112a1,1,0,0,1-.534-1l.558-4.858-4.206,2.8a1,1,0,0,1-1.11,0l-4.2-2.8.558,4.858a1,1,0,0,1-.535,1L23.2,32l4.085,2.112a1,1,0,0,1,.535,1l-.558,4.858,4.2-2.8A1,1,0,0,1,32.019,37Z" fill="#a7e1eb"/>
</svg>