<?xml version="1.0" encoding="UTF-8"?>
<svg enable-background="new 0 0 512.003 512.003" version="1.1" viewBox="0 0 512 512" xml:space="preserve" xmlns="http://www.w3.org/2000/svg">
<path d="m506.36 250.36h-84.782l51.049-41.085c2.426-1.953 2.809-5.503 0.858-7.927-1.954-2.426-5.505-2.81-7.927-0.858l-61.964 49.87h-26.359v-15.183c0-3.113-2.525-5.638-5.638-5.638s-5.638 2.525-5.638 5.638v15.183h-96.352l68.128-68.132 10.74 10.742c1.101 1.101 2.543 1.651 3.988 1.651 1.442 0 2.885-0.55 3.987-1.65 2.203-2.203 2.203-5.771 1e-3 -7.973l-10.741-10.742 20.244-20.245c2.203-2.201 2.203-5.772 0-7.972-2.203-2.203-5.772-2.203-7.972 0l-20.242 20.244-10.734-10.737c-2.201-2.201-5.769-2.203-7.973-1e-3 -2.203 2.203-2.203 5.772-1e-3 7.973l10.736 10.738-68.13 68.131v-96.349h15.185c3.113 0 5.638-2.525 5.638-5.638s-2.525-5.638-5.638-5.638h-15.185v-26.363l49.876-61.969c1.952-2.426 1.569-5.975-0.858-7.927-2.423-1.951-5.974-1.567-7.927 0.858l-41.091 51.055v-84.78c0-3.113-2.525-5.638-5.638-5.638s-5.638 2.525-5.638 5.638v84.78l-41.09-51.054c-1.956-2.426-5.504-2.81-7.927-0.858-2.426 1.953-2.809 5.503-0.858 7.927l49.875 61.969v26.361h-15.185c-3.113 0-5.638 2.525-5.638 5.638s2.525 5.638 5.638 5.638h15.185v96.349l-68.129-68.131 10.736-10.738c2.201-2.203 2.201-5.771-1e-3 -7.973-2.203-2.2-5.772-2.201-7.973 1e-3l-10.733 10.736-20.242-20.242c-2.2-2.203-5.772-2.203-7.972 0-2.203 2.201-2.203 5.771 0 7.972l20.242 20.244-10.742 10.742c-2.201 2.203-2.201 5.771 1e-3 7.973 1.101 1.1 2.543 1.65 3.987 1.65 1.442 0 2.887-0.55 3.988-1.651l10.74-10.742 68.129 68.132h-96.354v-15.183c0-3.113-2.525-5.638-5.638-5.638s-5.638 2.525-5.638 5.638v15.183h-26.364l-61.966-49.87c-2.424-1.952-5.975-1.567-7.927 0.858-1.952 2.427-1.569 5.974 0.858 7.927l51.05 41.085h-84.778c-3.113 0-5.638 2.525-5.638 5.638s2.525 5.638 5.638 5.638h84.78l-51.052 41.09c-2.427 1.953-2.809 5.503-0.858 7.927 1.115 1.384 2.748 2.104 4.396 2.104 1.24 0 2.489-0.407 3.531-1.245l61.966-49.875h26.359v15.186c0 3.113 2.525 5.638 5.638 5.638s5.638-2.525 5.638-5.638v-15.186h96.352l-68.129 68.132-10.738-10.74c-2.203-2.203-5.771-2.201-7.973-1e-3 -2.203 2.203-2.203 5.771-1e-3 7.973l10.74 10.742-20.241 20.241c-2.203 2.201-2.203 5.771 0 7.972 1.101 1.101 2.543 1.651 3.987 1.651 1.442 0 2.887-0.55 3.987-1.651l20.24-20.241 10.736 10.737c1.101 1.101 2.545 1.651 3.988 1.651s2.885-0.55 3.987-1.65c2.203-2.203 2.203-5.772 1e-3 -7.973l-10.737-10.738 68.131-68.133v96.352h-15.185c-3.113 0-5.638 2.525-5.638 5.638s2.525 5.638 5.638 5.638h15.185v26.361l-49.875 61.96c-1.952 2.426-1.569 5.975 0.858 7.927 1.041 0.838 2.29 1.245 3.531 1.245 1.648 0 3.281-0.719 4.396-2.104l41.09-51.048v84.782c0 3.113 2.525 5.638 5.638 5.638s5.638-2.525 5.638-5.638v-84.782l41.091 51.048c1.115 1.383 2.747 2.104 4.396 2.104 1.24 0 2.489-0.407 3.531-1.245 2.426-1.953 2.809-5.503 0.858-7.927l-49.876-61.96v-26.363h15.185c3.113 0 5.638-2.525 5.638-5.638s-2.525-5.638-5.638-5.638h-15.185v-96.35l68.129 68.132-10.737 10.74c-2.201 2.203-2.201 5.772 1e-3 7.973 1.101 1.1 2.543 1.65 3.987 1.65 1.443 0 2.887-0.55 3.988-1.651l10.736-10.737 20.241 20.241c1.1 1.101 2.543 1.651 3.987 1.651 1.442 0 2.887-0.55 3.987-1.651 2.203-2.201 2.203-5.771 0-7.972l-20.242-20.242 10.74-10.741c2.201-2.203 2.201-5.772-1e-3 -7.973-2.203-2.2-5.771-2.201-7.973 1e-3l-10.737 10.74-68.129-68.132h96.351v15.186c0 3.113 2.525 5.638 5.638 5.638s5.638-2.525 5.638-5.638v-15.186h26.359l61.964 49.875c1.041 0.838 2.29 1.245 3.531 1.245 1.648 0 3.281-0.719 4.396-2.104 1.952-2.426 1.569-5.974-0.858-7.927l-51.05-41.09h84.784c3.113 0 5.638-2.525 5.638-5.638-7e-3 -3.112-2.535-5.638-5.648-5.638z" fill="#8FE5FF"/>
</svg>