<?xml version="1.0" encoding="UTF-8"?>
<svg fill="#87ced9" version="1.1" viewBox="0 0 298 298" xml:space="preserve" xmlns="http://www.w3.org/2000/svg">
	<path d="m290.5 142.5h-22.069l10.116-10.116c2.93-2.929 2.93-7.678 1e-3 -10.607-2.93-2.929-7.679-2.93-10.606-1e-3l-19.428 19.427-42.498-15.113 20.012-42.096 0.494-0.494h24.978c4.143 0 7.5-3.357 7.5-7.5s-3.357-7.5-7.5-7.5h-9.979l13.545-13.545c2.929-2.93 2.929-7.678 0-10.607-2.93-2.928-7.844-2.928-10.774 0l-16.125 15.959v-14.807c0-4.143-3.357-7.5-7.5-7.5s-7.5 3.357-7.5 7.5v28.188l-40.399 19.283-15.309-43.771 18.803-18.763c2.929-2.929 2.95-7.678 0.02-10.606-2.928-2.928-7.833-2.929-10.762 1e-3l-9.352 9.196v-21.528c0-4.143-3.357-7.5-7.5-7.5s-7.5 3.357-7.5 7.5v20.528l-8.03-8.196c-2.93-2.929-7.595-2.93-10.523-1e-3 -2.93 2.929-2.888 7.678 0.041 10.606l18.577 18.557-15.379 43.96-41.687-19.741v-26.713c0-4.143-3.357-7.5-7.5-7.5s-7.5 3.357-7.5 7.5v12.6l-14.939-15.106c-2.93-2.928-7.594-2.928-10.524 0-2.929 2.93-2.887 7.678 0.042 10.608l14.94 14.898h-12.186c-4.143 0-7.5 3.357-7.5 7.5s3.357 7.5 7.5 7.5h26.713l19.771 41.59-43.019 15.299-18.905-18.906c-2.93-2.928-7.678-2.928-10.607 0-2.929 2.93-2.929 7.678 0 10.607l9.409 9.409h-22.362c-4.143 0-7.5 3.357-7.5 7.5s3.357 7.5 7.5 7.5h21.069l-8.116 8.116c-2.929 2.93-2.929 7.678 0 10.607 1.465 1.464 3.385 2.196 5.304 2.196s3.839-0.732 5.304-2.196l18.69-18.689 43.234 15.375-19.297 40.592h-27.188c-4.143 0-7.5 3.357-7.5 7.5s3.357 7.5 7.5 7.5h13.807l-15.959 15.959c-2.929 2.93-2.929 7.678 0 10.607 1.465 1.464 3.385 2.196 5.304 2.196s3.672-0.732 5.137-2.196l14.378-14.545v10.979c0 4.143 3.357 7.5 7.5 7.5s7.5-3.357 7.5-7.5v-25.713l41.758-19.771 15.248 42.651-18.519 18.561c-2.929 2.929-2.908 7.678 0.022 10.607 1.464 1.464 3.394 2.196 5.313 2.196s3.678-0.733 5.142-2.197l8.035-8.196v20.862c0 4.143 3.357 7.5 7.5 7.5s7.5-3.357 7.5-7.5v-21.862l9.363 9.196c1.465 1.465 3.467 2.197 5.387 2.197 1.919 0 3.881-0.733 5.344-2.196 2.93-2.929 2.951-7.678 0.022-10.607l-18.55-18.561 15.004-42.651 41.431 19.771v25.713c0 4.143 3.357 7.5 7.5 7.5s7.5-3.357 7.5-7.5v-11.186l14.565 14.398c1.465 1.464 3.468 2.196 5.387 2.196s3.881-0.732 5.345-2.196c2.929-2.93 2.95-7.678 0.021-10.607l-15.585-15.605h13.6c4.143 0 7.5-3.357 7.5-7.5s-3.357-7.5-7.5-7.5h-27.189l-19.296-40.591 43.332-15.409h0.576l18.018 18.017c1.464 1.464 3.384 2.196 5.303 2.196s3.839-0.732 5.304-2.197c2.929-2.929 2.929-7.678-1e-3 -10.606l-7.409-7.409h19.362c4.143 0 7.5-3.357 7.5-7.5s-3.357-7.501-7.5-7.501zm-86.144 61.856-40.015-19.022-14.841 41.742-14.842-41.742-19.006 9.035-21.009 9.987 19.02-40.014-41.739-14.842 41.74-14.844-19.02-40.013 40.077 19.051 14.688-42.411 14.907 42.394 40.041-19.033-19.021 40.013 41.74 14.844-41.74 14.843 19.02 40.012z"/>
</svg>