<?xml version="1.0" encoding="UTF-8"?>
<svg fill="#84b0b7" version="1.1" viewBox="0 0 512 512" xml:space="preserve" xmlns="http://www.w3.org/2000/svg">
		<path d="m476.87 229.4c-14.87 0-27.59 6.963-32.24 17.067h-24.08l11.093-11.093c3.413-3.413 3.413-8.533 0-11.947-3.413-3.413-8.533-3.413-11.947 0l-23.04 23.04h-27.307l28.16-28.16c3.413-3.413 3.413-8.533 0-11.947-3.413-3.413-8.533-3.413-11.947 0l-37.831 37.831-10.809-5.404c-11.986-6.278-20.911-16.377-25.512-28.248l15.272-15.272h56.321c5.12 0 8.533-3.413 8.533-8.533s-3.413-8.534-8.533-8.534h-39.253l17.067-17.067h30.72c5.12 0 8.533-3.413 8.533-8.533s-3.413-8.533-8.533-8.533h-13.654l16.807-16.807c2.706 1 5.749 1.447 8.793 1.447 8.533 0 18.773-4.267 26.453-11.093 13.653-13.653 16.213-32.427 5.973-42.667-5.12-5.973-12.8-7.68-21.333-5.973-6.827 1.707-14.507 5.973-20.48 11.947-10.639 9.974-14.54 23.575-10.9 33.94l-17.26 17.26v-13.653c0-5.12-3.413-8.533-8.533-8.533s-8.533 3.413-8.533 8.533v30.72l-17.067 17.065v-39.253c0-5.12-3.413-8.533-8.533-8.533s-8.533 3.413-8.533 8.533v56.32l-6.827 6.827v-11.947c0-3.413-2.56-5.973-5.12-7.68-3.413-1.707-6.827-0.853-9.387 0.853l-4.267 3.413c-7.749 6.064-16.563 9.724-25.6 11v-21.24l40.107-40.107c3.413-3.413 3.413-8.533 0-11.947s-8.533-3.413-11.947 0l-28.16 28.16v-27.307l23.04-23.04c3.413-3.413 3.413-8.533 0-11.947-3.413-3.413-8.533-3.413-11.947 0l-11.093 11.093v-24.08c10.103-4.65 17.067-17.37 17.067-32.24 0-18.771-11.093-34.131-25.6-34.131s-25.6 15.36-25.6 34.133c0 14.87 6.963 27.59 17.067 32.24v24.08l-11.094-11.093c-3.413-3.413-8.533-3.413-11.947 0s-3.413 8.533 0 11.947l23.04 23.04v27.307l-28.16-28.16c-3.413-3.413-8.533-3.413-11.947 0s-3.413 8.533 0 11.947l40.107 40.107v20.812c-8.136-1.565-16.025-5.082-23.04-10.572l-4.267-3.413c-2.56-1.707-6.827-2.56-9.387-0.853-3.413 1.707-5.12 4.267-5.12 7.68v13.653c0 0.28-0.01 0.559-0.015 0.839l-9.372-9.372v-56.322c0-5.12-3.413-8.533-8.533-8.533s-8.532 3.413-8.532 8.533v39.253l-17.067-17.067v-30.72c0-5.12-3.413-8.533-8.533-8.533s-8.533 3.413-8.533 8.533v13.653l-17.158-17.158c1.746-4.214 1.997-9.151 0.944-14.416-1.707-6.827-5.973-14.507-11.947-20.48s-12.8-10.24-20.48-11.947c-8.533-1.707-16.213 0.853-21.333 5.973-5.973 5.12-7.68 12.8-5.973 21.333 1.707 6.827 5.973 14.507 11.947 20.48 5.973 5.973 12.8 10.24 20.48 11.947 2.56 0.853 4.267 0.853 5.973 0.853 2.931 0 5.86-0.62 8.489-1.751l17.111 17.111h-13.653c-5.12 0-8.533 3.413-8.533 8.533s3.413 8.533 8.533 8.533h30.72l17.067 17.067h-39.254c-5.12 0-8.533 3.413-8.533 8.533s3.413 8.533 8.533 8.533h56.32l17.153 17.153c-4.771 11.327-13.412 20.928-24.833 26.367l-12.717 6.056-38.483-38.479c-3.413-3.413-8.533-3.413-11.947 0s-3.413 8.533 0 11.947l28.16 28.16h-27.307l-23.04-23.04c-3.413-3.413-8.533-3.413-11.947 0s-3.413 8.533 0 11.947l11.093 11.093h-24.08c-4.65-10.103-17.37-17.067-32.24-17.067-18.772 0-34.132 11.093-34.132 25.6s15.36 25.6 34.133 25.6c14.87 0 27.59-6.963 32.24-17.067h24.08l-11.093 11.094c-3.413 3.413-3.413 8.533 0 11.947 1.707 1.707 3.413 2.56 5.973 2.56s4.267-0.853 5.973-2.56l23.04-23.04h27.307l-28.16 28.16c-3.413 3.413-3.413 8.533 0 11.947 1.707 1.707 3.413 2.56 5.973 2.56s4.267-0.853 5.973-2.56l38.207-38.207 12.139 5.781c11.623 5.535 20.369 15.38 25.084 26.969l-16.551 16.551h-56.318c-5.12 0-8.533 3.413-8.533 8.533s3.413 8.532 8.533 8.532h39.253l-17.067 17.067h-30.72c-5.12 0-8.533 3.413-8.533 8.533s3.413 8.533 8.533 8.533h13.653l-17.028 17.028c-10.081-4.639-24.696-0.904-35.879 10.279-13.652 13.653-16.212 32.427-5.972 42.667 4.267 4.267 10.24 5.973 16.213 5.973 2.56 0 4.267 0 5.12-0.853 6.827-1.707 14.507-5.973 20.48-11.947 5.973-5.973 10.24-12.8 11.947-20.48 0.93-4.65 0.585-9.043-0.743-12.91l17.81-17.81v13.653c0 5.12 3.413 8.533 8.533 8.533 4.267 0 8.533-3.413 8.533-8.533v-30.72l17.067-17.067v39.254c0 5.12 3.413 8.533 8.533 8.533s8.533-3.413 8.533-8.533v-56.32l8.533-8.533v13.653c0 3.413 1.707 5.973 5.12 7.68s6.827 0.853 9.387-0.853l4.267-3.413c7.26-5.682 15.456-9.256 23.893-10.734v20.974l-40.106 40.106c-3.413 3.413-3.413 8.533 0 11.947 3.413 3.413 8.533 3.413 11.947 0l28.16-28.16v27.307l-23.04 23.04c-3.413 3.413-3.413 8.533 0 11.947 3.413 3.413 8.533 3.413 11.947 0l11.093-11.093v24.08c-10.103 4.65-17.067 17.37-17.067 32.24 0 18.772 11.093 34.132 25.6 34.132s25.6-15.36 25.6-34.133c0-14.87-6.963-27.59-17.067-32.24v-24.08l11.093 11.093c1.707 1.707 3.413 2.56 5.973 2.56s4.267-0.853 5.973-2.56c3.413-3.413 3.413-8.533 0-11.947l-23.04-23.04v-27.307l28.16 28.16c1.707 1.707 3.413 2.56 5.973 2.56s4.267-0.853 5.973-2.56c3.413-3.413 3.413-8.533 0-11.947l-40.107-40.107v-21.114c8.738 1.382 17.242 5.001 24.747 10.874l4.267 3.413c1.707 0.853 3.413 1.707 5.12 1.707 0.853 0 2.56 0 5.12-0.853 3.413-1.707 5.12-4.267 5.12-7.68v-11.947l6.827 6.827v56.321c0 5.12 3.413 8.533 8.533 8.533s8.535-3.413 8.535-8.533v-39.253l17.067 17.067v30.72c0 5.12 3.413 8.533 8.533 8.533s8.533-3.413 8.533-8.533v-13.654l17.263 17.263c-3.645 10.398 0.256 24.149 10.897 34.791 7.68 7.68 17.92 11.947 26.453 11.947 5.973 0 11.093-1.707 15.36-6.827 5.973-5.12 7.68-12.8 5.973-21.333-1.707-6.827-5.973-14.507-11.947-20.48-10.375-11.066-24.673-14.843-35.172-10.425l-16.882-16.882h13.653c5.12 0 8.533-3.413 8.533-8.533s-3.413-8.533-8.533-8.533h-30.72l-17.064-17.068h39.253c5.12 0 8.533-3.413 8.533-8.533s-3.413-8.533-8.533-8.533h-56.32l-15.324-15.324c4.586-12.12 13.533-22.467 25.564-28.196l10.809-5.404 37.831 37.831c1.707 1.707 3.413 2.56 5.973 2.56s4.267-0.853 5.973-2.56c3.413-3.413 3.413-8.533 0-11.947l-28.16-28.16h27.307l23.04 23.04c1.707 1.707 3.413 2.56 5.973 2.56s4.267-0.853 5.973-2.56c3.413-3.413 3.413-8.533 0-11.947l-11.093-11.093h24.08c4.65 10.103 17.37 17.067 32.24 17.067 18.774-1e-3 34.134-11.094 34.134-25.601s-15.36-25.6-34.133-25.6zm-372.91-118.61c-4.267-0.853-8.533-3.413-11.947-6.827-3.413-3.413-5.973-7.68-6.827-11.947-0.853-2.56 0-5.12 0.853-5.973s1.707-0.853 3.413-0.853h2.56c4.267 0.853 8.533 3.413 11.947 6.827s5.973 7.68 6.827 11.947c0.853 2.56 0 5.12-0.853 5.973s-3.413 1.706-5.973 0.853zm211.24 135.68h-27.153c-0.818-3.149-2.082-6.122-3.712-8.854l12.765-12.765c4.419 8.3 10.548 15.703 18.1 21.619zm-48.251 20.48c-0.3 0.3-0.564 0.617-0.812 0.942-2.996 2.594-6.886 4.178-11.135 4.178-9.387 0-17.067-7.68-17.067-17.067s7.68-17.067 17.067-17.067c4.249 0 8.139 1.585 11.135 4.178 0.247 0.324 0.512 0.642 0.812 0.942 0.342 0.342 0.685 0.64 1.034 0.913 2.54 2.982 4.086 6.833 4.086 11.034 0 4.249-1.584 8.139-4.178 11.135-0.325 0.247-0.642 0.511-0.942 0.812zm139.09-174.93c3.413-3.413 7.68-5.973 11.947-6.827h2.56c1.707 0 2.56 0 3.413 0.853 2.56 2.56 1.707 10.24-5.973 17.92-6.827 7.68-15.36 8.533-17.92 5.973s-1.707-10.239 5.973-17.919zm-116.91 103.25c0.141 4.103 0.666 8.156 1.535 12.118l-18.281 18.281c-2.732-1.63-5.705-2.894-8.854-3.712v-18.26c8.836-1.098 17.524-3.905 25.6-8.427zm-34.133-179.2c3.413 0 8.533 6.827 8.533 17.067s-5.12 17.067-8.533 17.067-8.533-6.827-8.533-17.067c0-10.241 5.12-17.067 8.533-17.067zm-34.133 179.2c8.076 4.523 16.764 7.33 25.6 8.428v18.26c-3.149 0.818-6.122 2.082-8.854 3.712l-18.227-18.227c0.837-3.947 1.342-8.014 1.481-12.173zm4.799 42.346c-1.63 2.732-2.894 5.705-3.712 8.854h-27.055c7.579-5.868 13.72-13.181 18.128-21.492l12.639 12.638zm-192.53 25.92c-10.24 0-17.067-5.12-17.067-8.533s6.827-8.533 17.067-8.533 17.067 5.12 17.067 8.533-6.827 8.533-17.067 8.533zm161.67 0h27.153c0.818 3.149 2.082 6.122 3.712 8.854l-12.765 12.765c-4.419-8.3-10.548-15.703-18.1-21.619zm-84.015 141.65c-0.853 4.267-3.413 8.533-6.827 11.947s-7.68 5.973-11.947 6.827c-2.56 0.853-5.12 0-5.973-0.853-2.56-2.56-1.707-10.24 5.973-17.92 5.12-5.12 11.093-6.827 14.507-6.827 1.116 0 1.864 0.362 2.489 0.615 0.276 0.378 0.578 0.746 0.924 1.092 0.293 0.293 0.588 0.551 0.885 0.794 0.37 1.177 0.494 2.749-0.031 4.325zm110.08-90.454c-0.141-4.103-0.666-8.156-1.535-12.119l18.281-18.281c2.732 1.63 5.705 2.894 8.854 3.712v18.26c-8.836 1.099-17.524 3.906-25.6 8.428zm34.133 179.2c-3.413 0-8.533-6.827-8.533-17.067s5.12-17.066 8.533-17.066 8.533 6.827 8.533 17.067-5.12 17.066-8.533 17.066zm34.133-179.2c-8.076-4.523-16.764-7.33-25.6-8.428v-18.26c3.149-0.818 6.122-2.082 8.854-3.712l18.227 18.227c-0.837 3.947-1.342 8.014-1.481 12.173zm128.85 90.454c3.413 3.413 5.973 7.68 6.827 11.947 0.853 2.56 0 5.12-0.853 5.973-2.56 2.56-10.24 1.707-17.92-5.973-6.475-5.755-8.086-12.71-6.902-16.289 0.326-0.238 0.642-0.491 0.928-0.778 0.488-0.488 0.899-1.015 1.247-1.563 0.562-0.139 1.235-0.144 2.166-0.144 3.413 0 9.387 2.56 14.507 6.827zm-133.65-132.8c1.63-2.732 2.894-5.705 3.712-8.854h27.055c-7.579 5.868-13.72 13.181-18.128 21.492l-12.639-12.638zm192.53-8.854c-10.24 0-17.067-5.12-17.067-8.533s6.827-8.533 17.067-8.533 17.067 5.12 17.067 8.533-6.827 8.533-17.067 8.533z"/>
</svg>