<?xml version="1.0" encoding="UTF-8"?>
<svg enable-background="new 0 0 512 512" version="1.1" viewBox="0 0 512 512" xml:space="preserve" xmlns="http://www.w3.org/2000/svg">
	<path d="m256 221.87c-4.719 0-8.533-3.814-8.533-8.533v-196.27c0-4.719 3.814-8.533 8.533-8.533s8.533 3.814 8.533 8.533v196.27c0 4.718-3.814 8.533-8.533 8.533" fill="#84b0b7"/>
	<path d="m273.07 17.067c0-9.43-7.638-17.067-17.067-17.067s-17.067 7.637-17.067 17.067 7.638 17.066 17.067 17.066 17.067-7.637 17.067-17.066" fill="#84b0b7"/>
	<g fill="#84b0b7">
		<path d="m256 179.2c-2.185 0-4.369-0.836-6.033-2.5l-42.667-42.667c-3.337-3.337-3.337-8.73 0-12.066s8.73-3.337 12.066 0l36.634 36.634 36.634-36.634c3.337-3.337 8.73-3.337 12.066 0 3.337 3.337 3.337 8.73 0 12.066l-42.667 42.667c-1.664 1.664-3.848 2.5-6.033 2.5"/>
		<path d="m256 85.333c-2.185 0-4.369-0.836-6.033-2.5l-17.067-17.067c-3.337-3.337-3.337-8.73 0-12.066 3.337-3.337 8.73-3.337 12.066 0l11.034 11.034 11.034-11.034c3.337-3.337 8.73-3.337 12.066 0 3.337 3.337 3.337 8.73 0 12.066l-17.067 17.067c-1.664 1.664-3.848 2.5-6.033 2.5"/>
		<path d="m256 128c-2.185 0-4.369-0.836-6.033-2.5l-25.6-25.6c-3.337-3.337-3.337-8.73 0-12.066 3.337-3.337 8.73-3.337 12.066 0l19.567 19.567 19.567-19.567c3.337-3.337 8.73-3.337 12.066 0 3.337 3.337 3.337 8.73 0 12.066l-25.6 25.6c-1.664 1.664-3.848 2.5-6.033 2.5"/>
		<path d="m224.37 249.97c-2.185 0-4.369-0.836-6.033-2.5l-139.03-139.03c-3.337-3.337-3.337-8.73 0-12.066 3.337-3.337 8.73-3.337 12.066 0l139.03 139.03c3.337 3.337 3.337 8.73 0 12.066-1.664 1.664-3.849 2.5-6.033 2.5"/>
	</g>
	<path d="m102.4 102.4c0-9.429-7.637-17.067-17.067-17.067s-17.066 7.638-17.066 17.067 7.637 17.067 17.067 17.067 17.066-7.638 17.066-17.067" fill="#84b0f1"/>
	<g fill="#84b0b7">
		<path d="m187.73 213.33h-60.339c-4.719 0-8.533-3.814-8.533-8.533s3.814-8.533 8.533-8.533h51.806v-51.806c0-4.719 3.814-8.533 8.533-8.533s8.533 3.814 8.533 8.533v60.339c1e-3 4.719-3.814 8.533-8.533 8.533"/>
		<path d="m119.47 145.07h-24.133c-4.719 0-8.533-3.814-8.533-8.533s3.814-8.534 8.533-8.534h15.599v-15.599c0-4.719 3.814-8.533 8.533-8.533s8.533 3.814 8.533 8.533v24.132c1e-3 4.719-3.813 8.534-8.532 8.534"/>
		<path d="m153.6 179.2h-36.198c-4.719 0-8.533-3.814-8.533-8.533s3.814-8.533 8.533-8.533h27.665v-27.665c0-4.719 3.814-8.533 8.533-8.533s8.533 3.814 8.533 8.533v36.198c0 4.719-3.814 8.533-8.533 8.533"/>
		<path d="m287.63 249.97c-2.185 0-4.369-0.836-6.033-2.5-3.337-3.337-3.337-8.73 0-12.066l139.03-139.03c3.337-3.337 8.73-3.337 12.066 0 3.337 3.337 3.337 8.73 0 12.066l-139.03 139.03c-1.664 1.664-3.848 2.5-6.033 2.5"/>
	</g>
	<path d="m426.67 119.47c9.429 0 17.067-7.637 17.067-17.067s-7.637-17.067-17.067-17.067-17.067 7.638-17.067 17.067 7.637 17.067 17.067 17.067" fill="#84b0f1"/>
	<g fill="#84b0b7">
		<path d="m384.61 213.33h-60.339c-4.719 0-8.533-3.814-8.533-8.533v-60.339c0-4.719 3.814-8.533 8.533-8.533 4.71 0 8.533 3.814 8.533 8.533v51.806h51.806c4.719 0 8.533 3.814 8.533 8.533 1e-3 4.719-3.814 8.533-8.533 8.533"/>
		<path d="m416.67 145.07h-24.132c-4.719 0-8.533-3.814-8.533-8.533v-24.132c0-4.719 3.814-8.533 8.533-8.533s8.533 3.814 8.533 8.533v15.598h15.599c4.719 0 8.533 3.814 8.533 8.533s-3.814 8.534-8.533 8.534"/>
		<path d="m394.6 179.2h-36.198c-4.719 0-8.533-3.814-8.533-8.533v-36.198c0-4.719 3.814-8.533 8.533-8.533s8.533 3.814 8.533 8.533v27.665h27.665c4.719 0 8.533 3.814 8.533 8.533s-3.814 8.533-8.533 8.533"/>
		<path d="m426.67 418.13c-2.185 0-4.369-0.836-6.033-2.5l-156.1-156.1c-3.337-3.337-3.337-8.73 0-12.066 3.337-3.337 8.73-3.337 12.066 0l156.1 156.1c3.337 3.337 3.337 8.73 0 12.066-1.664 1.664-3.849 2.5-6.033 2.5"/>
	</g>
	<path d="m409.6 409.6c0 9.429 7.637 17.067 17.067 17.067s17.067-7.637 17.067-17.067c0-9.429-7.637-17.067-17.067-17.067s-17.067 7.638-17.067 17.067" fill="#84b0f1"/>
	<g fill="#84b0b7">
		<path d="m324.27 375.47c-4.719 0-8.533-3.814-8.533-8.533v-59.734c0-4.719 3.814-8.533 8.533-8.533h59.733c4.719 0 8.533 3.814 8.533 8.533s-3.814 8.533-8.533 8.533h-51.2v51.2c0 4.719-3.814 8.534-8.533 8.534"/>
		<path d="m392.53 409.6c-4.719 0-8.533-3.814-8.533-8.533v-25.6c0-4.719 3.814-8.533 8.533-8.533h25.6c4.719 0 8.533 3.814 8.533 8.533s-3.814 8.533-8.533 8.533h-17.067v17.067c1e-3 4.719-3.814 8.533-8.533 8.533"/>
		<path d="m358.4 384c-4.719 0-8.533-3.814-8.533-8.533v-34.133c0-4.719 3.814-8.533 8.533-8.533h34.133c4.719 0 8.533 3.814 8.533 8.533s-3.814 8.533-8.533 8.533h-25.6v25.6c0 4.719-3.814 8.533-8.533 8.533"/>
		<path d="m85.333 418.13c-2.185 0-4.369-0.836-6.033-2.5-3.337-3.337-3.337-8.73 0-12.066l139.03-139.03c3.337-3.337 8.73-3.337 12.066 0 3.337 3.337 3.337 8.73 0 12.066l-139.03 139.03c-1.664 1.664-3.848 2.5-6.033 2.5"/>
	</g>
	<path d="m85.333 392.53c-9.429 0-17.067 7.637-17.067 17.067 0 9.429 7.637 17.067 17.067 17.067s17.067-7.638 17.067-17.067-7.637-17.067-17.067-17.067" fill="#84b0f1"/>
	<g fill="#84b0b7">
		<path d="m187.73 375.47c-4.719 0-8.533-3.814-8.533-8.533v-51.2h-51.2c-4.719 0-8.533-3.814-8.533-8.533s3.814-8.533 8.533-8.533h59.733c4.719 0 8.533 3.814 8.533 8.533v59.733c1e-3 4.718-3.814 8.533-8.533 8.533"/>
		<path d="m119.47 409.6c-4.719 0-8.533-3.814-8.533-8.533v-17.067h-17.067c-4.719 0-8.533-3.814-8.533-8.533s3.814-8.533 8.533-8.533h25.6c4.719 0 8.533 3.814 8.533 8.533v25.6c0 4.719-3.814 8.533-8.533 8.533"/>
		<path d="m153.6 384c-4.719 0-8.533-3.814-8.533-8.533v-25.6h-25.6c-4.719 0-8.533-3.814-8.533-8.533s3.814-8.533 8.533-8.533h34.133c4.719 0 8.533 3.814 8.533 8.533v34.133c0 4.719-3.814 8.533-8.533 8.533"/>
		<path d="m256 503.47c-4.719 0-8.533-3.814-8.533-8.533v-196.27c0-4.719 3.814-8.533 8.533-8.533s8.533 3.814 8.533 8.533v196.27c0 4.718-3.814 8.533-8.533 8.533"/>
	</g>
	<path d="m238.93 494.93c0 9.429 7.637 17.067 17.067 17.067 9.429 0 17.067-7.637 17.067-17.067 0-9.429-7.637-17.067-17.067-17.067-9.429 1e-3 -17.067 7.638-17.067 17.067" fill="#84b0f1"/>
	<g fill="#84b0b7">
		<path d="m298.67 392.53c-2.185 0-4.369-0.836-6.033-2.5l-36.634-36.633-36.634 36.634c-3.337 3.337-8.73 3.337-12.066 0-3.337-3.337-3.337-8.73 0-12.066l42.667-42.667c3.337-3.337 8.73-3.337 12.066 0l42.667 42.667c3.337 3.337 3.337 8.73 0 12.066-1.664 1.663-3.849 2.499-6.033 2.499"/>
		<path d="m273.07 460.8c-2.185 0-4.369-0.836-6.033-2.5l-11.034-11.034-11.034 11.034c-3.337 3.337-8.73 3.337-12.066 0-3.337-3.337-3.337-8.73 0-12.066l17.067-17.067c3.337-3.337 8.73-3.337 12.066 0l17.067 17.067c3.337 3.337 3.337 8.73 0 12.066-1.664 1.664-3.849 2.5-6.033 2.5"/>
		<path d="m281.6 426.67c-2.185 0-4.369-0.836-6.033-2.5l-19.567-19.568-19.567 19.567c-3.337 3.337-8.73 3.337-12.066 0-3.337-3.337-3.337-8.73 0-12.066l25.6-25.6c3.337-3.337 8.73-3.337 12.066 0l25.6 25.6c3.337 3.337 3.337 8.73 0 12.066-1.664 1.664-3.848 2.501-6.033 2.501"/>
		<path d="m494.93 264.53h-204.8c-4.719 0-8.533-3.814-8.533-8.533s3.814-8.533 8.533-8.533h204.8c4.719 0 8.533 3.814 8.533 8.533 1e-3 4.719-3.814 8.533-8.533 8.533"/>
	</g>
	<path d="m494.93 273.07c9.429 0 17.067-7.637 17.067-17.067 0-9.429-7.637-17.067-17.067-17.067-9.429 0-17.067 7.637-17.067 17.067 1e-3 9.429 7.638 17.067 17.067 17.067" fill="#84b0f1"/>
	<g fill="#84b0b7">
		<path d="m366.93 290.13c-2.185 0-4.369-0.836-6.033-2.5l-25.6-25.6c-3.337-3.337-3.337-8.73 0-12.066l25.6-25.6c3.337-3.337 8.73-3.337 12.066 0s3.337 8.73 0 12.066l-19.566 19.567 19.567 19.567c3.337 3.337 3.337 8.73 0 12.066-1.665 1.664-3.849 2.5-6.034 2.5"/>
		<path d="m452.27 281.6c-2.185 0-4.369-0.836-6.033-2.5l-17.067-17.067c-3.337-3.337-3.337-8.73 0-12.066l17.067-17.067c3.337-3.337 8.73-3.337 12.066 0 3.337 3.337 3.337 8.73 0 12.066l-11.034 11.034 11.034 11.034c3.337 3.337 3.337 8.73 0 12.066-1.664 1.664-3.849 2.5-6.033 2.5"/>
		<path d="m418.13 290.13c-2.185 0-4.369-0.836-6.033-2.5l-25.6-25.6c-3.337-3.337-3.337-8.73 0-12.066l25.6-25.6c3.337-3.337 8.73-3.337 12.066 0 3.337 3.337 3.337 8.73 0 12.066l-19.567 19.567 19.567 19.567c3.337 3.337 3.337 8.73 0 12.066-1.664 1.664-3.848 2.5-6.033 2.5"/>
		<path d="m213.33 264.53h-196.27c-4.719 0-8.533-3.814-8.533-8.533s3.814-8.533 8.533-8.533h196.27c4.719 0 8.533 3.814 8.533 8.533s-3.815 8.533-8.534 8.533"/>
	</g>
	<path d="m17.067 238.93c-9.43 0-17.067 7.638-17.067 17.067s7.637 17.067 17.067 17.067 17.066-7.638 17.066-17.067-7.637-17.067-17.066-17.067" fill="#84b0f1"/>
	<g fill="#84b0b7">
		<path d="m145.07 290.13c-2.185 0-4.369-0.836-6.033-2.5-3.337-3.337-3.337-8.73 0-12.066l19.567-19.567-19.567-19.567c-3.337-3.337-3.337-8.73 0-12.066 3.337-3.337 8.73-3.337 12.066 0l25.6 25.6c3.337 3.337 3.337 8.73 0 12.066l-25.6 25.6c-1.664 1.664-3.849 2.5-6.033 2.5"/>
		<path d="m59.733 281.6c-2.185 0-4.369-0.836-6.033-2.5-3.337-3.337-3.337-8.73 0-12.066l11.034-11.034-11.034-11.034c-3.337-3.337-3.337-8.73 0-12.066 3.337-3.337 8.73-3.337 12.066 0l17.067 17.067c3.337 3.337 3.337 8.73 0 12.066l-17.067 17.067c-1.664 1.664-3.848 2.5-6.033 2.5"/>
		<path d="m93.867 290.13c-2.185 0-4.369-0.836-6.033-2.5-3.337-3.337-3.337-8.73 0-12.066l19.567-19.567-19.567-19.567c-3.337-3.337-3.337-8.73 0-12.066 3.337-3.337 8.73-3.337 12.066 0l25.6 25.6c3.337 3.337 3.337 8.73 0 12.066l-25.6 25.6c-1.664 1.664-3.849 2.5-6.033 2.5"/>
	</g>
	<polygon points="298.67 230.4 298.67 281.6 256 307.2 213.33 281.6 213.33 230.4 256 204.8" fill="#84b0f1"/>
</svg>