<?xml version="1.0" encoding="UTF-8"?>
<svg data-name="Layer 1" viewBox="0 0 128 128" xmlns="http://www.w3.org/2000/svg">
<defs>
<style>.cls-1{fill:#84b0b7;}</style>
</defs>
<path class="cls-1" d="m103.88 54.808a2.5075 2.5075 0 0 0-3.1504-1.6055l-7.3862 2.4004 1.8193-4.395a2.4997 2.4997 0 0 0-4.6191-1.9126l-3.4526 8.3389-6.3247 2.0552 2.5098-14.636a2.5001 2.5001 0 0 0-3.6274-2.6348l-13.146 6.9116v-6.5928l6.9795-5.959a2.5002 2.5002 0 0 0-3.2471-3.8027l-3.7324 3.187v-7.8272a2.5 2.5 0 0 0-5 0v7.8272l-3.7329-3.187a2.4999 2.4999 0 0 0-3.2466 3.8022l6.9795 5.9595v6.5928l-13.146-6.9111a2.5002 2.5002 0 0 0-3.6279 2.6348l2.5098 14.636-6.3247-2.0552-3.4526-8.3389a2.4996 2.4996 0 1 0-4.6191 1.9121l1.8193 4.3955-7.3872-2.4004a2.5001 2.5001 0 0 0-1.5439 4.7559l7.5732 2.4605-4.314 2.6445a2.5001 2.5001 0 0 0 2.6138 4.2627l7.9526-4.875 6.1406 1.9946-10.637 10.369a2.5001 2.5001 0 0 0 1.3848 4.2646l14.697 2.1353-3.8101 5.2441-9.2114 0.72363a2.5003 2.5003 0 0 0-1.4263 4.395 2.4738 2.4738 0 0 0 1.8184 0.59033l4.9546-0.38916-4.6621 6.4165a2.5 2.5 0 0 0 0.55371 3.4927 2.5675 2.5675 0 0 0 3.4912-0.55322l4.6152-6.3525 1.1323 4.7124a2.4998 2.4998 0 1 0 4.8613-1.168l-2.1289-8.8633 3.8579-5.3106 6.5742 13.321a2.5004 2.5004 0 0 0 4.4839-4.8e-4l6.5737-13.32 3.8579 5.3106-2.1289 8.8633a2.4998 2.4998 0 1 0 4.8613 1.168l1.1323-4.7124 4.6152 6.3525a2.5 2.5 0 0 0 4.4917-1.0786 2.4836 2.4836 0 0 0-0.44678-1.8608l-4.6621-6.4165 4.9639 0.38965a2.5002 2.5002 0 0 0 0.38232-4.9858l-9.2109-0.72363-3.8101-5.2441 14.696-2.1352a2.5003 2.5003 0 0 0 1.3857-4.2646l-10.638-10.369 6.1406-1.9946 7.9526 4.875a2.5 2.5 0 0 0 2.6133-4.2627l-4.3135-2.6445 7.5732-2.4604a2.5039 2.5039 0 0 0 1.6055-3.1504zm-26.944 11.383 8.8926 8.668-12.285 1.7851-5.4961-7.5649zm-10.434-1.8677v-9.3447l10.989-5.7778-2.0977 12.234zm2.9951 15.258-5.4951 11.135-5.4951-11.135 5.4951-7.5639zm-16.887-18.146-2.0977-12.234 10.989 5.7778v9.3452zm7.3462 7.644-5.4961 7.565-12.285-1.7852 8.8926-8.668z"/>
</svg>